<?xml version="1.0" encoding="utf-8"?>
<svg version="1.1" xmlns="http://www.w3.org/2000/svg" xmlns:xlink="http://www.w3.org/1999/xlink" x="0px" y="0px" viewBox="0 0 1000 1000" enable-background="new 0 0 1000 1000" xml:space="preserve">
<g><path d="M538.8,165.5h202.4V230H538.8V165.5L538.8,165.5z"/><path d="M400.9,324.5c7.4,12.5,11.1,27.1,11.1,43.9c0,25.7-7.7,47.1-23,64.2c-15.3,17.2-37.4,27.3-66.3,30.3v44h-36.8v-43.8c-48.2-4.9-78-33-89.5-84l57-14.9c5.3,32.1,22.7,48.2,52.4,48.2c13.9,0,24.1-3.4,30.6-10.3c6.5-6.9,9.8-15.1,9.8-24.9c0-10.1-3.3-17.7-9.8-22.8c-6.5-5.2-21.1-11.8-43.6-19.7c-20.3-7-36.1-13.9-47.5-20.9c-11.4-6.8-20.6-16.4-27.7-28.7c-7.1-12.4-10.7-26.8-10.7-43.2c0-21.5,6.4-40.9,19-58.2c12.7-17.2,32.7-27.7,59.9-31.6v-34h36.8v34c41.1,4.9,67.8,28.2,80,69.9l-50.8,20.8c-9.9-28.5-25.1-42.8-45.9-42.8c-10.4,0-18.7,3.2-25,9.6c-6.3,6.4-9.5,14.1-9.5,23.2c0,9.2,3,16.3,9.1,21.3c6.1,4.9,19,11.1,39,18.4c21.8,8,39,15.6,51.4,22.7C383.6,302.1,393.5,312,400.9,324.5L400.9,324.5z"/><path d="M804.1,897.8v7.5c0,11-7.5,20.2-16.3,20.2H111.2c-8.8,0-16.3-9.3-16.3-20.2V94.7c0-11,7.5-20.2,16.3-20.2h676.6c8.8,0,16.3,9.3,16.3,20.2v295.8c22.8,5.9,44.5,14.8,64.5,26.3V94.7c0-46.7-36.2-84.7-80.8-84.7H111.2c-44.6,0-80.8,38-80.8,84.7v810.6c0,46.7,36.2,84.7,80.8,84.7h676.6c44.6,0,80.8-38,80.8-84.7v-33.8C848.5,883,826.9,891.9,804.1,897.8z"/><path d="M738.4,382.2c0.9,0,1.9,0,2.8,0v-16.9H483.3v64.5h104.5C630.4,399.8,682.3,382.2,738.4,382.2z"/><path d="M488.6,565.1H183.5v64.5h293.4C478.1,607.3,482.1,585.7,488.6,565.1z"/><path d="M506,765H183.5v64.5h369.8C534.4,810.6,518.4,788.8,506,765z"/><path d="M869.4,621.5h-24c-2.2-7.9-5.3-15.5-9.3-22.5l17-17c3.1-3.1,3.1-8.2,0-11.3l-27.4-27.4c-1.5-1.5-3.6-2.3-5.6-2.3c-2.1,0-4.1,0.8-5.6,2.3l-17,17c-7-3.9-14.6-7.1-22.5-9.3v-24c0-4.4-3.6-8-8-8h-38.7c-4.4,0-8,3.6-8,8v24c-7.9,2.2-15.5,5.3-22.5,9.3l-17-16.9c-1.5-1.5-3.6-2.3-5.6-2.3s-4.1,0.8-5.6,2.3l-27.4,27.4c-3.1,3.1-3.1,8.2,0,11.3l17,17c-3.9,7-7.1,14.6-9.3,22.5h-24c-4.4,0-8,3.6-8,8v38.7c0,4.4,3.6,8,8,8h24c2.2,7.9,5.3,15.5,9.3,22.5l-17,17c-3.1,3.1-3.1,8.2,0,11.3l27.4,27.4c1.5,1.5,3.6,2.3,5.6,2.3s4.1-0.8,5.6-2.3l17-17c7,3.9,14.6,7.1,22.5,9.3v24c0,4.4,3.6,8,8,8H767c4.4,0,8-3.6,8-8v-24c7.9-2.2,15.5-5.3,22.5-9.3l17,17c1.5,1.5,3.6,2.3,5.6,2.3c2.1,0,4.1-0.8,5.6-2.3l27.4-27.4c3.1-3.1,3.1-8.2,0-11.3l-17-17c3.9-7,7.1-14.6,9.3-22.5h24c4.4,0,8-3.6,8-8v-38.7C877.3,625.1,873.7,621.5,869.4,621.5L869.4,621.5z M815.7,667.9c-1.5,5.5-3.7,10.8-6.4,15.7l-9.8,17.3l-17.2,9.8c-4.9,2.7-10.1,4.9-15.7,6.4l-19.1,5.3l-19.1-5.3c-5.5-1.5-10.8-3.7-15.7-6.4l-17.3-9.8l-9.8-17.3c-2.7-4.9-4.9-10.1-6.4-15.7l-5.3-19.1l5.3-19.1c1.5-5.5,3.7-10.8,6.4-15.7l9.8-17.3l17.3-9.8c4.9-2.7,10.1-4.9,15.7-6.4l19.1-5.3l19.1,5.3c5.5,1.5,10.8,3.7,15.7,6.4l17.2,9.8l9.8,17.3c2.7,4.9,4.9,10.1,6.4,15.7l5.3,19.1L815.7,667.9L815.7,667.9z"/><path d="M747.6,600.2c-26.9,0-48.7,21.8-48.7,48.7c0,26.9,21.8,48.7,48.7,48.7c26.9,0,48.7-21.8,48.7-48.7C796.2,621.9,774.5,600.2,747.6,600.2L747.6,600.2z M747.6,666.7c-9.9,0-17.9-8-17.9-17.9c0-9.9,8-17.9,17.9-17.9c9.9,0,17.9,8,17.9,17.9C765.5,658.7,757.5,666.7,747.6,666.7L747.6,666.7z"/><path d="M740.9,418.6c-126.3,0-228.7,102.4-228.7,228.7c0,126.3,102.4,228.7,228.7,228.7c126.3,0,228.7-102.4,228.7-228.7C969.6,521,867.2,418.6,740.9,418.6L740.9,418.6z M863.7,770.8c-32.8,32.8-76.3,50.8-122.7,50.8c-46.3,0-89.9-18-122.7-50.8c-32.8-32.8-50.8-76.3-50.8-122.7c0-46.3,18-89.9,50.8-122.7c32.8-32.8,76.3-50.8,122.7-50.8c46.3,0,89.9,18,122.7,50.8c32.8,32.8,50.8,76.3,50.8,122.7C914.5,694.5,896.4,738,863.7,770.8L863.7,770.8z"/></g>
</svg>